<?xml version="1.0" encoding="utf-8"?>
<!-- Generator: Adobe Illustrator 25.4.0, SVG Export Plug-In . SVG Version: 6.00 Build 0)  -->
<svg version="1.1" id="레이어_1" xmlns="http://www.w3.org/2000/svg" xmlns:xlink="http://www.w3.org/1999/xlink" x="0px"
	 y="0px" viewBox="0 0 476.58 471.56" style="enable-background:new 0 0 476.58 471.56;" xml:space="preserve">
<path d="M73.57,160.28l164.72,125.35l163.58-125.35v175.09c0,0-0.5,16.91-16.91,16.91H91.97c0,0-14.43-0.99-17.41-17.41
	L73.57,160.28z"/>
<path d="M73.57,128.94l164.15,120.38c0,0,164.15-120.38,164.15-120.38c0-25.13-46.81-21.89-64-21.89c-19,0-26.19,0-45.19,0
	c-43.61,0-11.35,0-54.96,0c-16.52,0-108.93,0-125.45,0C95.38,107.05,76.02,106.89,73.57,128.94z"/>
</svg>
